<?xml version="1.0" encoding="UTF-8"?>
<svg id="Layer_1" data-name="Layer 1" xmlns="http://www.w3.org/2000/svg" viewBox="0 0 432 459.31">
  <defs>
    <style>
      .cls-1 {
        fill: #d3b091;
      }

      .cls-1, .cls-2, .cls-3, .cls-4, .cls-5, .cls-6, .cls-7, .cls-8, .cls-9, .cls-10, .cls-11, .cls-12, .cls-13, .cls-14, .cls-15, .cls-16, .cls-17, .cls-18, .cls-19, .cls-20, .cls-21, .cls-22, .cls-23, .cls-24, .cls-25, .cls-26, .cls-27, .cls-28, .cls-29, .cls-30, .cls-31, .cls-32, .cls-33, .cls-34, .cls-35, .cls-36, .cls-37, .cls-38, .cls-39, .cls-40, .cls-41, .cls-42, .cls-43, .cls-44, .cls-45, .cls-46, .cls-47, .cls-48, .cls-49, .cls-50, .cls-51, .cls-52, .cls-53, .cls-54, .cls-55, .cls-56, .cls-57, .cls-58, .cls-59, .cls-60, .cls-61, .cls-62, .cls-63, .cls-64, .cls-65, .cls-66, .cls-67, .cls-68, .cls-69, .cls-70, .cls-71, .cls-72, .cls-73, .cls-74, .cls-75, .cls-76, .cls-77, .cls-78, .cls-79, .cls-80, .cls-81, .cls-82, .cls-83, .cls-84, .cls-85, .cls-86, .cls-87, .cls-88, .cls-89, .cls-90, .cls-91, .cls-92, .cls-93, .cls-94, .cls-95, .cls-96, .cls-97, .cls-98, .cls-99, .cls-100, .cls-101, .cls-102, .cls-103, .cls-104, .cls-105, .cls-106, .cls-107, .cls-108, .cls-109, .cls-110, .cls-111, .cls-112, .cls-113, .cls-114, .cls-115, .cls-116, .cls-117, .cls-118, .cls-119, .cls-120, .cls-121, .cls-122, .cls-123, .cls-124, .cls-125, .cls-126, .cls-127, .cls-128, .cls-129, .cls-130, .cls-131, .cls-132, .cls-133, .cls-134, .cls-135, .cls-136, .cls-137, .cls-138, .cls-139, .cls-140, .cls-141, .cls-142, .cls-143, .cls-144, .cls-145, .cls-146, .cls-147, .cls-148, .cls-149, .cls-150, .cls-151, .cls-152, .cls-153, .cls-154, .cls-155, .cls-156, .cls-157, .cls-158, .cls-159, .cls-160, .cls-161, .cls-162, .cls-163, .cls-164, .cls-165, .cls-166, .cls-167, .cls-168, .cls-169, .cls-170, .cls-171, .cls-172, .cls-173, .cls-174, .cls-175, .cls-176, .cls-177, .cls-178, .cls-179, .cls-180, .cls-181, .cls-182, .cls-183, .cls-184, .cls-185, .cls-186, .cls-187, .cls-188, .cls-189, .cls-190, .cls-191, .cls-192, .cls-193, .cls-194, .cls-195, .cls-196, .cls-197, .cls-198, .cls-199, .cls-200, .cls-201, .cls-202, .cls-203, .cls-204, .cls-205, .cls-206, .cls-207, .cls-208, .cls-209, .cls-210, .cls-211, .cls-212, .cls-213, .cls-214, .cls-215, .cls-216, .cls-217, .cls-218, .cls-219, .cls-220, .cls-221, .cls-222, .cls-223, .cls-224, .cls-225, .cls-226, .cls-227, .cls-228, .cls-229, .cls-230, .cls-231, .cls-232, .cls-233, .cls-234, .cls-235, .cls-236, .cls-237, .cls-238, .cls-239, .cls-240, .cls-241, .cls-242, .cls-243, .cls-244, .cls-245, .cls-246, .cls-247, .cls-248, .cls-249, .cls-250, .cls-251, .cls-252, .cls-253, .cls-254, .cls-255 {
        stroke-width: 0px;
      }

      .cls-2 {
        fill: #356294;
      }

      .cls-3 {
        fill: #316092;
      }

      .cls-4 {
        fill: #a38065;
      }

      .cls-5 {
        fill: #336bac;
      }

      .cls-6 {
        fill: #2e5e90;
      }

      .cls-7 {
        fill: #8eaad3;
      }

      .cls-8 {
        fill: #41699a;
      }

      .cls-9 {
        fill: #346db2;
      }

      .cls-10 {
        fill: #6987b3;
      }

      .cls-11 {
        fill: #6583b0;
      }

      .cls-12 {
        fill: #c09c7e;
      }

      .cls-13 {
        fill: #c5a183;
      }

      .cls-14 {
        fill: #ab876c;
      }

      .cls-15 {
        fill: #9a775d;
      }

      .cls-16 {
        fill: #346db1;
      }

      .cls-17 {
        fill: #5274a3;
      }

      .cls-18 {
        fill: #d1ad8f;
      }

      .cls-19 {
        fill: #376394;
      }

      .cls-20 {
        fill: #c9a587;
      }

      .cls-21 {
        fill: #93b0d8;
      }

      .cls-22 {
        fill: #603913;
      }

      .cls-23 {
        fill: #88a4cd;
      }

      .cls-24 {
        fill: #6280ae;
      }

      .cls-25 {
        fill: #5878a7;
      }

      .cls-26 {
        fill: #b99578;
      }

      .cls-27 {
        fill: #c39f81;
      }

      .cls-28 {
        fill: #2e639c;
      }

      .cls-29 {
        fill: #476c9c;
      }

      .cls-30 {
        fill: #89a5ce;
      }

      .cls-31 {
        fill: #dcb899;
      }

      .cls-32 {
        fill: #336cb0;
      }

      .cls-33 {
        fill: #3f6798;
      }

      .cls-34 {
        fill: #7490bc;
      }

      .cls-35 {
        fill: #5173a2;
      }

      .cls-36 {
        fill: #bc987b;
      }

      .cls-37 {
        fill: #4b6f9f;
      }

      .cls-38 {
        fill: #436a9a;
      }

      .cls-39 {
        fill: #6381af;
      }

      .cls-40 {
        fill: #2d629a;
      }

      .cls-41 {
        fill: #2d6097;
      }

      .cls-42 {
        fill: #2e629b;
      }

      .cls-43 {
        fill: #829ec8;
      }

      .cls-44 {
        fill: #486d9d;
      }

      .cls-45 {
        fill: #2a5d8f;
      }

      .cls-46 {
        fill: #cba889;
      }

      .cls-47 {
        fill: #7c99c3;
      }

      .cls-48 {
        fill: #8aa7cf;
      }

      .cls-49 {
        fill: #2d5e90;
      }

      .cls-50 {
        fill: #336193;
      }

      .cls-51 {
        fill: #3269a8;
      }

      .cls-52 {
        fill: #3269a9;
      }

      .cls-53 {
        fill: #5b7ba9;
      }

      .cls-54 {
        fill: #86a2cc;
      }

      .cls-55 {
        fill: #5979a7;
      }

      .cls-56 {
        fill: #3065a1;
      }

      .cls-57 {
        fill: #3269aa;
      }

      .cls-58 {
        fill: #89a6cf;
      }

      .cls-59 {
        fill: #607eac;
      }

      .cls-60 {
        fill: #4d70a0;
      }

      .cls-61 {
        fill: #e0bd9d;
      }

      .cls-62 {
        fill: #c19d7f;
      }

      .cls-63 {
        fill: #5c7baa;
      }

      .cls-64 {
        fill: #4e71a1;
      }

      .cls-65 {
        fill: #6482af;
      }

      .cls-66 {
        fill: #2a5c8f;
      }

      .cls-67 {
        fill: #3c6597;
      }

      .cls-68 {
        fill: #2c5d90;
      }

      .cls-69 {
        fill: #6885b2;
      }

      .cls-70 {
        fill: #5e7dab;
      }

      .cls-71 {
        fill: #346eb3;
      }

      .cls-72 {
        fill: #346193;
      }

      .cls-73 {
        fill: #b28e72;
      }

      .cls-74 {
        fill: #d6b293;
      }

      .cls-75 {
        fill: #a68368;
      }

      .cls-76 {
        fill: #2e639d;
      }

      .cls-77 {
        fill: #8dc63f;
      }

      .cls-78 {
        fill: #d8b595;
      }

      .cls-79 {
        fill: #91aed6;
      }

      .cls-80 {
        fill: #9ab7df;
      }

      .cls-81 {
        fill: #c8a486;
      }

      .cls-82 {
        fill: #2c5f95;
      }

      .cls-83 {
        fill: #5072a2;
      }

      .cls-84 {
        fill: #2e629a;
      }

      .cls-85 {
        fill: #7693be;
      }

      .cls-86 {
        fill: #496e9e;
      }

      .cls-87 {
        fill: #3e6698;
      }

      .cls-88 {
        fill: #5676a5;
      }

      .cls-89 {
        fill: #7793bf;
      }

      .cls-90 {
        fill: #7f9bc5;
      }

      .cls-91 {
        fill: #4a6e9e;
      }

      .cls-92 {
        fill: #2d6198;
      }

      .cls-93 {
        fill: #96735a;
      }

      .cls-94 {
        fill: #7b97c2;
      }

      .cls-95 {
        fill: #99765c;
      }

      .cls-96 {
        fill: #bf9b7e;
      }

      .cls-97 {
        fill: #336bad;
      }

      .cls-98 {
        fill: #728eba;
      }

      .cls-99 {
        fill: #7894bf;
      }

      .cls-100 {
        fill: #366294;
      }

      .cls-101 {
        fill: #5475a4;
      }

      .cls-102 {
        fill: #9f7c61;
      }

      .cls-103 {
        fill: #a97c50;
      }

      .cls-104 {
        fill: #5677a6;
      }

      .cls-105 {
        fill: #b69275;
      }

      .cls-106 {
        fill: #6c89b6;
      }

      .cls-107 {
        fill: #2f65a0;
      }

      .cls-108 {
        fill: #b49074;
      }

      .cls-109 {
        fill: #2d6199;
      }

      .cls-110 {
        fill: #bd997c;
      }

      .cls-111 {
        fill: #3066a2;
      }

      .cls-112 {
        fill: #cfab8c;
      }

      .cls-113 {
        fill: #92afd7;
      }

      .cls-114 {
        fill: #ddba9a;
      }

      .cls-115 {
        fill: #3067a4;
      }

      .cls-116 {
        fill: #ae8a6e;
      }

      .cls-117 {
        fill: #5f7eac;
      }

      .cls-118 {
        fill: #c4a082;
      }

      .cls-119 {
        fill: #98755b;
      }

      .cls-120 {
        fill: #819ec7;
      }

      .cls-121 {
        fill: #b18d71;
      }

      .cls-122 {
        fill: #2b5d8f;
      }

      .cls-123 {
        fill: #7d9ac4;
      }

      .cls-124 {
        fill: #476d9d;
      }

      .cls-125 {
        fill: #8da9d2;
      }

      .cls-126 {
        fill: #809cc6;
      }

      .cls-127 {
        fill: #be9a7d;
      }

      .cls-128 {
        fill: #5778a6;
      }

      .cls-129 {
        fill: #bb977a;
      }

      .cls-130 {
        fill: #5576a5;
      }

      .cls-131 {
        fill: #708db9;
      }

      .cls-132 {
        fill: #b79376;
      }

      .cls-133 {
        fill: #97b4dc;
      }

      .cls-134 {
        fill: #7390bb;
      }

      .cls-135 {
        fill: #a78369;
      }

      .cls-136 {
        fill: #b59174;
      }

      .cls-137 {
        fill: #ac886d;
      }

      .cls-138 {
        fill: #b89477;
      }

      .cls-139 {
        fill: #7995c0;
      }

      .cls-140 {
        fill: #c29e80;
      }

      .cls-141 {
        fill: #ba9679;
      }

      .cls-142 {
        fill: #2a5d90;
      }

      .cls-143 {
        fill: #96b3db;
      }

      .cls-144 {
        fill: #3a6496;
      }

      .cls-145 {
        fill: #2b5e91;
      }

      .cls-146 {
        fill: #5a79a8;
      }

      .cls-147 {
        fill: #326aab;
      }

      .cls-148 {
        fill: #d7b394;
      }

      .cls-149 {
        fill: #af8b6f;
      }

      .cls-150 {
        fill: #aa866b;
      }

      .cls-151 {
        fill: #9c795f;
      }

      .cls-152 {
        fill: #99b6de;
      }

      .cls-153 {
        fill: #346eb5;
      }

      .cls-154 {
        fill: #84a1ca;
      }

      .cls-155 {
        fill: #446a9b;
      }

      .cls-156 {
        fill: #a37f65;
      }

      .cls-157 {
        fill: #a9856a;
      }

      .cls-158 {
        fill: #3c2415;
      }

      .cls-159 {
        fill: #6d8ab6;
      }

      .cls-160 {
        fill: #9d7a60;
      }

      .cls-161 {
        fill: #326092;
      }

      .cls-162 {
        fill: #2f649f;
      }

      .cls-163 {
        fill: #3168a8;
      }

      .cls-164 {
        fill: #a88469;
      }

      .cls-165 {
        fill: #95b1d9;
      }

      .cls-166 {
        fill: #a58267;
      }

      .cls-167 {
        fill: #7591bd;
      }

      .cls-168 {
        fill: #85a2cb;
      }

      .cls-169 {
        fill: #5d7caa;
      }

      .cls-170 {
        fill: #e3c09f;
      }

      .cls-171 {
        fill: #87a3cc;
      }

      .cls-172 {
        fill: #84a0ca;
      }

      .cls-173 {
        fill: #2f5f91;
      }

      .cls-174 {
        fill: #9bb8e0;
      }

      .cls-175 {
        fill: #98b5dd;
      }

      .cls-176 {
        fill: #9e7b61;
      }

      .cls-177 {
        fill: #336bae;
      }

      .cls-178 {
        fill: #336caf;
      }

      .cls-179 {
        fill: #ad896e;
      }

      .cls-180 {
        fill: #dfbb9b;
      }

      .cls-181 {
        fill: #6784b2;
      }

      .cls-182 {
        fill: #3066a3;
      }

      .cls-183 {
        fill: #2f649e;
      }

      .cls-184 {
        fill: #7a96c1;
      }

      .cls-185 {
        fill: #cda98a;
      }

      .cls-186 {
        fill: #9b785e;
      }

      .cls-187 {
        fill: #6c89b5;
      }

      .cls-188 {
        fill: #e5c1a1;
      }

      .cls-189 {
        fill: #6e8bb7;
      }

      .cls-190 {
        fill: #2c6096;
      }

      .cls-191 {
        fill: #a17d63;
      }

      .cls-192 {
        fill: #a27e64;
      }

      .cls-193 {
        fill: #8ca8d1;
      }

      .cls-194 {
        fill: #6886b3;
      }

      .cls-195 {
        fill: #3168a6;
      }

      .cls-196 {
        fill: #d9b696;
      }

      .cls-197 {
        fill: #6b88b5;
      }

      .cls-198 {
        fill: #8facd4;
      }

      .cls-199 {
        fill: #009444;
      }

      .cls-200 {
        fill: #ceaa8b;
      }

      .cls-201 {
        fill: #a07c62;
      }

      .cls-202 {
        fill: #809dc7;
      }

      .cls-203 {
        fill: #95b2da;
      }

      .cls-204 {
        fill: #3d6697;
      }

      .cls-205 {
        fill: #5273a3;
      }

      .cls-206 {
        fill: #8eabd3;
      }

      .cls-207 {
        fill: #42699a;
      }

      .cls-208 {
        fill: #8ba8d0;
      }

      .cls-209 {
        fill: #e2be9e;
      }

      .cls-210 {
        fill: #6f8cb8;
      }

      .cls-211 {
        fill: #97745a;
      }

      .cls-212 {
        fill: #839fc9;
      }

      .cls-213 {
        fill: #a48166;
      }

      .cls-214 {
        fill: #718dba;
      }

      .cls-215 {
        fill: #90add5;
      }

      .cls-216 {
        fill: #2a5d91;
      }

      .cls-217 {
        fill: #5a7aa9;
      }

      .cls-218 {
        fill: #6a87b4;
      }

      .cls-219 {
        fill: #396495;
      }

      .cls-220 {
        fill: #7e9ac5;
      }

      .cls-221 {
        fill: #7c98c3;
      }

      .cls-222 {
        fill: #b38f73;
      }

      .cls-223 {
        fill: #d2ae90;
      }

      .cls-224 {
        fill: #2b5e92;
      }

      .cls-225 {
        fill: #466b9c;
      }

      .cls-226 {
        fill: #7996c1;
      }

      .cls-227 {
        fill: #c49a6c;
      }

      .cls-228 {
        fill: #dbb798;
      }

      .cls-229 {
        fill: #006838;
      }

      .cls-230 {
        fill: #d0ac8e;
      }

      .cls-231 {
        fill: #7592bd;
      }

      .cls-232 {
        fill: #caa688;
      }

      .cls-233 {
        fill: #5375a4;
      }

      .cls-234 {
        fill: #4f72a1;
      }

      .cls-235 {
        fill: #456b9b;
      }

      .cls-236 {
        fill: #94b0d8;
      }

      .cls-237 {
        fill: #2b5e93;
      }

      .cls-238 {
        fill: #4c6f9f;
      }

      .cls-239 {
        fill: #6f8bb8;
      }

      .cls-240 {
        fill: #3167a5;
      }

      .cls-241 {
        fill: #b08c70;
      }

      .cls-242 {
        fill: #305f91;
      }

      .cls-243 {
        fill: #6582b0;
      }

      .cls-244 {
        fill: #3b6596;
      }

      .cls-245 {
        fill: #c6a284;
      }

      .cls-246 {
        fill: #406899;
      }

      .cls-247 {
        fill: #2c5f94;
      }

      .cls-248 {
        fill: #c7a385;
      }

      .cls-249 {
        fill: #6684b1;
      }

      .cls-250 {
        fill: #617fad;
      }

      .cls-251 {
        fill: #386395;
      }

      .cls-252 {
        fill: #99765d;
      }

      .cls-253 {
        fill: #3168a7;
      }

      .cls-254 {
        fill: #d4b192;
      }

      .cls-255 {
        fill: #728fbb;
      }
    </style>
  </defs>
  <g>
    <ellipse class="cls-153" cx="216" cy="365.89" rx="216" ry="93.42"/>
    <ellipse class="cls-71" cx="216.33" cy="365.74" rx="215.32" ry="93.14"/>
    <ellipse class="cls-9" cx="216.67" cy="365.6" rx="214.64" ry="92.86"/>
    <ellipse class="cls-16" cx="217" cy="365.45" rx="213.96" ry="92.59"/>
    <ellipse class="cls-16" cx="217.33" cy="365.3" rx="213.28" ry="92.31"/>
    <ellipse class="cls-32" cx="217.66" cy="365.16" rx="212.6" ry="92.03"/>
    <ellipse class="cls-178" cx="218" cy="365.01" rx="211.92" ry="91.76"/>
    <ellipse class="cls-177" cx="218.33" cy="364.87" rx="211.24" ry="91.48"/>
    <ellipse class="cls-97" cx="218.66" cy="364.72" rx="210.56" ry="91.2"/>
    <ellipse class="cls-5" cx="219" cy="364.57" rx="209.88" ry="90.93"/>
    <ellipse class="cls-147" cx="219.33" cy="364.43" rx="209.2" ry="90.65"/>
    <ellipse class="cls-147" cx="219.66" cy="364.28" rx="208.52" ry="90.37"/>
    <ellipse class="cls-57" cx="219.99" cy="364.13" rx="207.84" ry="90.1"/>
    <ellipse class="cls-52" cx="220.33" cy="363.99" rx="207.16" ry="89.82"/>
    <ellipse class="cls-51" cx="220.66" cy="363.84" rx="206.48" ry="89.54"/>
    <ellipse class="cls-163" cx="220.99" cy="363.69" rx="205.8" ry="89.26"/>
    <ellipse class="cls-253" cx="221.33" cy="363.55" rx="205.12" ry="88.99"/>
    <ellipse class="cls-195" cx="221.66" cy="363.4" rx="204.44" ry="88.71"/>
    <ellipse class="cls-240" cx="221.99" cy="363.25" rx="203.76" ry="88.43"/>
    <ellipse class="cls-240" cx="222.32" cy="363.11" rx="203.08" ry="88.16"/>
    <ellipse class="cls-115" cx="222.66" cy="362.96" rx="202.4" ry="87.88"/>
    <ellipse class="cls-182" cx="222.99" cy="362.81" rx="201.71" ry="87.6"/>
    <ellipse class="cls-111" cx="223.32" cy="362.67" rx="201.03" ry="87.33"/>
    <ellipse class="cls-111" cx="223.66" cy="362.52" rx="200.35" ry="87.05"/>
    <ellipse class="cls-56" cx="223.99" cy="362.37" rx="199.67" ry="86.77"/>
    <ellipse class="cls-107" cx="224.32" cy="362.23" rx="198.99" ry="86.5"/>
    <ellipse class="cls-107" cx="224.66" cy="362.08" rx="198.31" ry="86.22"/>
    <ellipse class="cls-162" cx="224.99" cy="361.94" rx="197.63" ry="85.94"/>
    <ellipse class="cls-183" cx="225.32" cy="361.79" rx="196.95" ry="85.67"/>
    <ellipse class="cls-183" cx="225.65" cy="361.64" rx="196.27" ry="85.39"/>
    <ellipse class="cls-76" cx="225.99" cy="361.5" rx="195.59" ry="85.11"/>
    <ellipse class="cls-28" cx="226.32" cy="361.35" rx="194.91" ry="84.84"/>
    <ellipse class="cls-28" cx="226.65" cy="361.2" rx="194.23" ry="84.56"/>
    <ellipse class="cls-42" cx="226.99" cy="361.06" rx="193.55" ry="84.28"/>
    <ellipse class="cls-84" cx="227.32" cy="360.91" rx="192.87" ry="84.01"/>
    <ellipse class="cls-40" cx="227.65" cy="360.76" rx="192.19" ry="83.73"/>
    <ellipse class="cls-109" cx="227.98" cy="360.62" rx="191.51" ry="83.45"/>
    <ellipse class="cls-92" cx="228.32" cy="360.47" rx="190.83" ry="83.18"/>
    <ellipse class="cls-92" cx="228.65" cy="360.32" rx="190.15" ry="82.9"/>
    <ellipse class="cls-41" cx="228.98" cy="360.18" rx="189.47" ry="82.62"/>
    <ellipse class="cls-190" cx="229.32" cy="360.03" rx="188.79" ry="82.35"/>
    <ellipse class="cls-190" cx="229.65" cy="359.88" rx="188.11" ry="82.07"/>
    <ellipse class="cls-82" cx="229.98" cy="359.74" rx="187.43" ry="81.79"/>
    <ellipse class="cls-247" cx="230.31" cy="359.59" rx="186.75" ry="81.52"/>
    <ellipse class="cls-247" cx="230.65" cy="359.44" rx="186.07" ry="81.24"/>
    <ellipse class="cls-237" cx="230.98" cy="359.3" rx="185.39" ry="80.96"/>
    <ellipse class="cls-224" cx="231.31" cy="359.15" rx="184.71" ry="80.68"/>
    <ellipse class="cls-224" cx="231.65" cy="359.01" rx="184.03" ry="80.41"/>
    <ellipse class="cls-145" cx="231.98" cy="358.86" rx="183.35" ry="80.13"/>
    <ellipse class="cls-216" cx="232.31" cy="358.71" rx="182.67" ry="79.85"/>
    <ellipse class="cls-142" cx="232.64" cy="358.57" rx="181.99" ry="79.58"/>
    <ellipse class="cls-45" cx="232.98" cy="358.42" rx="181.31" ry="79.3"/>
    <ellipse class="cls-66" cx="233.31" cy="358.27" rx="180.63" ry="79.02"/>
    <ellipse class="cls-122" cx="233.34" cy="358.25" rx="180.5" ry="78.96"/>
    <ellipse class="cls-68" cx="233.38" cy="358.22" rx="180.38" ry="78.9"/>
    <ellipse class="cls-49" cx="233.41" cy="358.2" rx="180.26" ry="78.83"/>
    <ellipse class="cls-6" cx="233.44" cy="358.17" rx="180.13" ry="78.77"/>
    <ellipse class="cls-173" cx="233.48" cy="358.15" rx="180.01" ry="78.7"/>
    <ellipse class="cls-242" cx="233.51" cy="358.12" rx="179.89" ry="78.64"/>
    <ellipse class="cls-3" cx="233.55" cy="358.1" rx="179.76" ry="78.57"/>
    <ellipse class="cls-161" cx="233.58" cy="358.07" rx="179.64" ry="78.51"/>
    <ellipse class="cls-50" cx="233.61" cy="358.05" rx="179.52" ry="78.44"/>
    <ellipse class="cls-72" cx="233.65" cy="358.02" rx="179.39" ry="78.38"/>
    <ellipse class="cls-2" cx="233.68" cy="357.99" rx="179.27" ry="78.31"/>
    <ellipse class="cls-100" cx="233.71" cy="357.97" rx="179.14" ry="78.25"/>
    <ellipse class="cls-19" cx="233.75" cy="357.94" rx="179.02" ry="78.18"/>
    <ellipse class="cls-251" cx="233.78" cy="357.92" rx="178.9" ry="78.12"/>
    <ellipse class="cls-219" cx="233.82" cy="357.89" rx="178.77" ry="78.06"/>
    <ellipse class="cls-144" cx="233.85" cy="357.87" rx="178.65" ry="77.99"/>
    <ellipse class="cls-244" cx="233.88" cy="357.84" rx="178.53" ry="77.93"/>
    <ellipse class="cls-67" cx="233.92" cy="357.82" rx="178.4" ry="77.86"/>
    <ellipse class="cls-204" cx="233.95" cy="357.79" rx="178.28" ry="77.8"/>
    <ellipse class="cls-87" cx="233.98" cy="357.77" rx="178.16" ry="77.73"/>
    <ellipse class="cls-33" cx="234.02" cy="357.74" rx="178.03" ry="77.67"/>
    <ellipse class="cls-246" cx="234.05" cy="357.72" rx="177.91" ry="77.6"/>
    <ellipse class="cls-246" cx="234.09" cy="357.69" rx="177.79" ry="77.54"/>
    <ellipse class="cls-8" cx="234.12" cy="357.67" rx="177.66" ry="77.47"/>
    <ellipse class="cls-207" cx="234.15" cy="357.64" rx="177.54" ry="77.41"/>
    <ellipse class="cls-38" cx="234.19" cy="357.62" rx="177.41" ry="77.35"/>
    <ellipse class="cls-155" cx="234.22" cy="357.59" rx="177.29" ry="77.28"/>
    <ellipse class="cls-235" cx="234.25" cy="357.56" rx="177.17" ry="77.22"/>
    <ellipse class="cls-225" cx="234.29" cy="357.54" rx="177.04" ry="77.15"/>
    <ellipse class="cls-29" cx="234.32" cy="357.51" rx="176.92" ry="77.09"/>
    <ellipse class="cls-124" cx="234.35" cy="357.49" rx="176.8" ry="77.02"/>
    <ellipse class="cls-44" cx="234.39" cy="357.46" rx="176.67" ry="76.96"/>
    <ellipse class="cls-86" cx="234.42" cy="357.44" rx="176.55" ry="76.89"/>
    <ellipse class="cls-91" cx="234.46" cy="357.41" rx="176.43" ry="76.83"/>
    <ellipse class="cls-37" cx="234.49" cy="357.39" rx="176.3" ry="76.76"/>
    <ellipse class="cls-238" cx="234.52" cy="357.36" rx="176.18" ry="76.7"/>
    <ellipse class="cls-60" cx="234.56" cy="357.34" rx="176.06" ry="76.63"/>
    <ellipse class="cls-60" cx="234.59" cy="357.31" rx="175.93" ry="76.57"/>
    <ellipse class="cls-64" cx="234.62" cy="357.29" rx="175.81" ry="76.51"/>
    <ellipse class="cls-234" cx="234.66" cy="357.26" rx="175.68" ry="76.44"/>
    <ellipse class="cls-83" cx="234.69" cy="357.24" rx="175.56" ry="76.38"/>
    <ellipse class="cls-35" cx="234.73" cy="357.21" rx="175.44" ry="76.31"/>
    <ellipse class="cls-205" cx="234.76" cy="357.19" rx="175.31" ry="76.25"/>
    <ellipse class="cls-17" cx="234.79" cy="357.16" rx="175.19" ry="76.18"/>
    <ellipse class="cls-233" cx="234.83" cy="357.14" rx="175.07" ry="76.12"/>
    <ellipse class="cls-101" cx="234.86" cy="357.11" rx="174.94" ry="76.05"/>
    <ellipse class="cls-130" cx="234.89" cy="357.08" rx="174.82" ry="75.99"/>
    <ellipse class="cls-88" cx="234.93" cy="357.06" rx="174.7" ry="75.92"/>
    <ellipse class="cls-104" cx="234.96" cy="357.03" rx="174.57" ry="75.86"/>
    <ellipse class="cls-128" cx="235" cy="357.01" rx="174.45" ry="75.79"/>
    <ellipse class="cls-25" cx="235.03" cy="356.98" rx="174.33" ry="75.73"/>
    <ellipse class="cls-55" cx="235.06" cy="356.96" rx="174.2" ry="75.67"/>
    <ellipse class="cls-146" cx="235.1" cy="356.93" rx="174.08" ry="75.6"/>
    <ellipse class="cls-217" cx="235.13" cy="356.91" rx="173.95" ry="75.54"/>
    <ellipse class="cls-53" cx="235.16" cy="356.88" rx="173.83" ry="75.47"/>
    <ellipse class="cls-63" cx="235.2" cy="356.86" rx="173.71" ry="75.41"/>
    <ellipse class="cls-169" cx="235.23" cy="356.83" rx="173.58" ry="75.34"/>
    <ellipse class="cls-70" cx="235.26" cy="356.81" rx="173.46" ry="75.28"/>
    <ellipse class="cls-70" cx="235.3" cy="356.78" rx="173.34" ry="75.21"/>
    <ellipse class="cls-117" cx="235.33" cy="356.76" rx="173.21" ry="75.15"/>
    <ellipse class="cls-59" cx="235.37" cy="356.73" rx="173.09" ry="75.08"/>
    <ellipse class="cls-250" cx="235.4" cy="356.71" rx="172.97" ry="75.02"/>
    <ellipse class="cls-24" cx="235.43" cy="356.68" rx="172.84" ry="74.96"/>
    <ellipse class="cls-24" cx="235.47" cy="356.65" rx="172.72" ry="74.89"/>
    <ellipse class="cls-39" cx="235.5" cy="356.63" rx="172.6" ry="74.83"/>
    <ellipse class="cls-65" cx="235.53" cy="356.6" rx="172.47" ry="74.76"/>
    <ellipse class="cls-243" cx="235.57" cy="356.58" rx="172.35" ry="74.7"/>
    <ellipse class="cls-11" cx="235.6" cy="356.55" rx="172.22" ry="74.63"/>
    <ellipse class="cls-249" cx="235.64" cy="356.53" rx="172.1" ry="74.57"/>
    <ellipse class="cls-181" cx="235.67" cy="356.5" rx="171.98" ry="74.5"/>
    <ellipse class="cls-69" cx="235.7" cy="356.48" rx="171.85" ry="74.44"/>
    <ellipse class="cls-194" cx="235.74" cy="356.45" rx="171.73" ry="74.37"/>
    <ellipse class="cls-10" cx="235.77" cy="356.43" rx="171.61" ry="74.31"/>
    <ellipse class="cls-218" cx="235.8" cy="356.4" rx="171.48" ry="74.24"/>
    <ellipse class="cls-197" cx="235.84" cy="356.38" rx="171.36" ry="74.18"/>
    <ellipse class="cls-187" cx="235.87" cy="356.35" rx="171.24" ry="74.12"/>
    <ellipse class="cls-106" cx="235.9" cy="356.33" rx="171.11" ry="74.05"/>
    <ellipse class="cls-159" cx="235.94" cy="356.3" rx="170.99" ry="73.99"/>
    <ellipse class="cls-189" cx="235.97" cy="356.28" rx="170.87" ry="73.92"/>
    <ellipse class="cls-239" cx="236.01" cy="356.25" rx="170.74" ry="73.86"/>
    <ellipse class="cls-210" cx="236.04" cy="356.23" rx="170.62" ry="73.79"/>
    <ellipse class="cls-131" cx="236.07" cy="356.2" rx="170.49" ry="73.73"/>
    <ellipse class="cls-214" cx="236.11" cy="356.17" rx="170.37" ry="73.66"/>
    <ellipse class="cls-98" cx="236.14" cy="356.15" rx="170.25" ry="73.6"/>
    <ellipse class="cls-255" cx="236.17" cy="356.12" rx="170.12" ry="73.53"/>
    <ellipse class="cls-134" cx="236.21" cy="356.1" rx="170" ry="73.47"/>
    <ellipse class="cls-34" cx="236.24" cy="356.07" rx="169.88" ry="73.41"/>
    <ellipse class="cls-167" cx="236.28" cy="356.05" rx="169.75" ry="73.34"/>
    <ellipse class="cls-231" cx="236.31" cy="356.02" rx="169.63" ry="73.28"/>
    <ellipse class="cls-85" cx="236.34" cy="356" rx="169.51" ry="73.21"/>
    <ellipse class="cls-89" cx="236.38" cy="355.97" rx="169.38" ry="73.15"/>
    <ellipse class="cls-99" cx="236.41" cy="355.95" rx="169.26" ry="73.08"/>
    <ellipse class="cls-139" cx="236.44" cy="355.92" rx="169.14" ry="73.02"/>
    <ellipse class="cls-226" cx="236.48" cy="355.9" rx="169.01" ry="72.95"/>
    <ellipse class="cls-184" cx="236.51" cy="355.87" rx="168.89" ry="72.89"/>
    <ellipse class="cls-94" cx="236.55" cy="355.85" rx="168.77" ry="72.82"/>
    <ellipse class="cls-221" cx="236.58" cy="355.82" rx="168.64" ry="72.76"/>
    <ellipse class="cls-47" cx="236.61" cy="355.8" rx="168.52" ry="72.69"/>
    <ellipse class="cls-123" cx="236.65" cy="355.77" rx="168.39" ry="72.63"/>
    <ellipse class="cls-220" cx="236.68" cy="355.75" rx="168.27" ry="72.57"/>
    <ellipse class="cls-90" cx="236.71" cy="355.72" rx="168.15" ry="72.5"/>
    <ellipse class="cls-126" cx="236.75" cy="355.69" rx="168.02" ry="72.44"/>
    <ellipse class="cls-202" cx="236.78" cy="355.67" rx="167.9" ry="72.37"/>
    <ellipse class="cls-120" cx="236.81" cy="355.64" rx="167.78" ry="72.31"/>
    <ellipse class="cls-43" cx="236.85" cy="355.62" rx="167.65" ry="72.24"/>
    <ellipse class="cls-212" cx="236.88" cy="355.59" rx="167.53" ry="72.18"/>
    <ellipse class="cls-172" cx="236.92" cy="355.57" rx="167.41" ry="72.11"/>
    <ellipse class="cls-154" cx="236.95" cy="355.54" rx="167.28" ry="72.05"/>
    <ellipse class="cls-168" cx="236.98" cy="355.52" rx="167.16" ry="71.98"/>
    <ellipse class="cls-54" cx="237.02" cy="355.49" rx="167.04" ry="71.92"/>
    <ellipse class="cls-171" cx="237.05" cy="355.47" rx="166.91" ry="71.85"/>
    <ellipse class="cls-23" cx="237.08" cy="355.44" rx="166.79" ry="71.79"/>
    <ellipse class="cls-30" cx="237.12" cy="355.42" rx="166.66" ry="71.73"/>
    <ellipse class="cls-58" cx="237.15" cy="355.39" rx="166.54" ry="71.66"/>
    <ellipse class="cls-48" cx="237.19" cy="355.37" rx="166.42" ry="71.6"/>
    <ellipse class="cls-208" cx="237.22" cy="355.34" rx="166.29" ry="71.53"/>
    <ellipse class="cls-193" cx="237.25" cy="355.32" rx="166.17" ry="71.47"/>
    <ellipse class="cls-125" cx="237.29" cy="355.29" rx="166.05" ry="71.4"/>
    <ellipse class="cls-7" cx="237.32" cy="355.26" rx="165.92" ry="71.34"/>
    <ellipse class="cls-206" cx="237.35" cy="355.24" rx="165.8" ry="71.27"/>
    <ellipse class="cls-198" cx="237.39" cy="355.21" rx="165.68" ry="71.21"/>
    <ellipse class="cls-215" cx="237.42" cy="355.19" rx="165.55" ry="71.14"/>
    <ellipse class="cls-79" cx="237.46" cy="355.16" rx="165.43" ry="71.08"/>
    <ellipse class="cls-113" cx="237.49" cy="355.14" rx="165.31" ry="71.02"/>
    <ellipse class="cls-21" cx="237.52" cy="355.11" rx="165.18" ry="70.95"/>
    <ellipse class="cls-236" cx="237.56" cy="355.09" rx="165.06" ry="70.89"/>
    <ellipse class="cls-165" cx="237.59" cy="355.06" rx="164.93" ry="70.82"/>
    <ellipse class="cls-203" cx="237.62" cy="355.04" rx="164.81" ry="70.76"/>
    <ellipse class="cls-143" cx="237.66" cy="355.01" rx="164.69" ry="70.69"/>
    <ellipse class="cls-133" cx="237.69" cy="354.99" rx="164.56" ry="70.63"/>
    <ellipse class="cls-175" cx="237.72" cy="354.96" rx="164.44" ry="70.56"/>
    <ellipse class="cls-152" cx="237.76" cy="354.94" rx="164.32" ry="70.5"/>
    <ellipse class="cls-80" cx="237.79" cy="354.91" rx="164.19" ry="70.43"/>
    <ellipse class="cls-174" cx="237.83" cy="354.89" rx="164.07" ry="70.37"/>
  </g>
  <g>
    <ellipse class="cls-93" cx="245.73" cy="342.47" rx="126.82" ry="52.68"/>
    <ellipse class="cls-211" cx="245.95" cy="342.33" rx="126.03" ry="52.45"/>
    <ellipse class="cls-119" cx="246.17" cy="342.19" rx="125.25" ry="52.21"/>
    <ellipse class="cls-95" cx="246.39" cy="342.05" rx="124.46" ry="51.98"/>
    <ellipse class="cls-252" cx="246.61" cy="341.91" rx="123.68" ry="51.74"/>
    <ellipse class="cls-15" cx="246.82" cy="341.77" rx="122.89" ry="51.5"/>
    <ellipse class="cls-186" cx="247.04" cy="341.63" rx="122.11" ry="51.27"/>
    <ellipse class="cls-151" cx="247.26" cy="341.49" rx="121.32" ry="51.03"/>
    <ellipse class="cls-160" cx="247.48" cy="341.35" rx="120.54" ry="50.8"/>
    <ellipse class="cls-176" cx="247.7" cy="341.21" rx="119.75" ry="50.56"/>
    <ellipse class="cls-102" cx="247.92" cy="341.07" rx="118.97" ry="50.33"/>
    <ellipse class="cls-201" cx="248.14" cy="340.93" rx="118.19" ry="50.09"/>
    <ellipse class="cls-191" cx="248.36" cy="340.79" rx="117.4" ry="49.85"/>
    <ellipse class="cls-192" cx="248.58" cy="340.65" rx="116.62" ry="49.62"/>
    <ellipse class="cls-156" cx="248.8" cy="340.51" rx="115.83" ry="49.38"/>
    <ellipse class="cls-4" cx="249.02" cy="340.37" rx="115.05" ry="49.15"/>
    <ellipse class="cls-213" cx="249.24" cy="340.24" rx="114.26" ry="48.91"/>
    <ellipse class="cls-166" cx="249.46" cy="340.1" rx="113.48" ry="48.68"/>
    <ellipse class="cls-75" cx="249.68" cy="339.96" rx="112.69" ry="48.44"/>
    <ellipse class="cls-135" cx="249.89" cy="339.82" rx="111.91" ry="48.2"/>
    <ellipse class="cls-164" cx="250.11" cy="339.68" rx="111.12" ry="47.97"/>
    <ellipse class="cls-157" cx="250.33" cy="339.54" rx="110.34" ry="47.73"/>
    <ellipse class="cls-150" cx="250.55" cy="339.4" rx="109.56" ry="47.5"/>
    <ellipse class="cls-14" cx="250.77" cy="339.26" rx="108.77" ry="47.26"/>
    <ellipse class="cls-137" cx="250.99" cy="339.12" rx="107.99" ry="47.02"/>
    <ellipse class="cls-179" cx="251.21" cy="338.98" rx="107.2" ry="46.79"/>
    <ellipse class="cls-116" cx="251.43" cy="338.84" rx="106.42" ry="46.55"/>
    <ellipse class="cls-149" cx="251.65" cy="338.7" rx="105.63" ry="46.32"/>
    <ellipse class="cls-241" cx="251.87" cy="338.56" rx="104.85" ry="46.08"/>
    <ellipse class="cls-121" cx="252.09" cy="338.42" rx="104.06" ry="45.85"/>
    <ellipse class="cls-73" cx="252.31" cy="338.28" rx="103.28" ry="45.61"/>
    <ellipse class="cls-222" cx="252.53" cy="338.14" rx="102.5" ry="45.37"/>
    <ellipse class="cls-108" cx="252.75" cy="338" rx="101.71" ry="45.14"/>
    <ellipse class="cls-136" cx="252.96" cy="337.86" rx="100.93" ry="44.9"/>
    <ellipse class="cls-105" cx="253.18" cy="337.72" rx="100.14" ry="44.67"/>
    <ellipse class="cls-132" cx="253.4" cy="337.58" rx="99.36" ry="44.43"/>
    <ellipse class="cls-138" cx="253.62" cy="337.44" rx="98.57" ry="44.2"/>
    <ellipse class="cls-26" cx="253.84" cy="337.31" rx="97.79" ry="43.96"/>
    <ellipse class="cls-141" cx="254.06" cy="337.17" rx="97" ry="43.72"/>
    <ellipse class="cls-129" cx="254.28" cy="337.03" rx="96.22" ry="43.49"/>
    <ellipse class="cls-36" cx="254.5" cy="336.89" rx="95.43" ry="43.25"/>
    <ellipse class="cls-110" cx="254.72" cy="336.75" rx="94.65" ry="43.02"/>
    <ellipse class="cls-127" cx="254.94" cy="336.61" rx="93.87" ry="42.78"/>
    <ellipse class="cls-96" cx="255.16" cy="336.47" rx="93.08" ry="42.55"/>
    <ellipse class="cls-12" cx="255.38" cy="336.33" rx="92.3" ry="42.31"/>
    <ellipse class="cls-62" cx="255.6" cy="336.19" rx="91.51" ry="42.07"/>
    <ellipse class="cls-140" cx="255.81" cy="336.05" rx="90.73" ry="41.84"/>
    <ellipse class="cls-27" cx="256.03" cy="335.91" rx="89.94" ry="41.6"/>
    <ellipse class="cls-118" cx="256.25" cy="335.77" rx="89.16" ry="41.37"/>
    <ellipse class="cls-13" cx="256.47" cy="335.63" rx="88.37" ry="41.13"/>
    <ellipse class="cls-245" cx="256.69" cy="335.49" rx="87.59" ry="40.9"/>
    <ellipse class="cls-248" cx="256.91" cy="335.35" rx="86.8" ry="40.66"/>
    <ellipse class="cls-81" cx="257.13" cy="335.21" rx="86.02" ry="40.42"/>
    <ellipse class="cls-20" cx="257.35" cy="335.07" rx="85.24" ry="40.19"/>
    <ellipse class="cls-232" cx="257.57" cy="334.93" rx="84.45" ry="39.95"/>
    <ellipse class="cls-46" cx="257.79" cy="334.79" rx="83.67" ry="39.72"/>
    <ellipse class="cls-185" cx="258.01" cy="334.65" rx="82.88" ry="39.48"/>
    <ellipse class="cls-200" cx="258.23" cy="334.51" rx="82.1" ry="39.25"/>
    <ellipse class="cls-112" cx="258.45" cy="334.38" rx="81.31" ry="39.01"/>
    <ellipse class="cls-230" cx="258.67" cy="334.24" rx="80.53" ry="38.77"/>
    <ellipse class="cls-18" cx="258.88" cy="334.1" rx="79.74" ry="38.54"/>
    <ellipse class="cls-223" cx="259.1" cy="333.96" rx="78.96" ry="38.3"/>
    <ellipse class="cls-1" cx="259.32" cy="333.82" rx="78.17" ry="38.07"/>
    <ellipse class="cls-254" cx="259.54" cy="333.68" rx="77.39" ry="37.83"/>
    <ellipse class="cls-74" cx="259.76" cy="333.54" rx="76.61" ry="37.59"/>
    <ellipse class="cls-148" cx="259.98" cy="333.4" rx="75.82" ry="37.36"/>
    <ellipse class="cls-78" cx="260.2" cy="333.26" rx="75.04" ry="37.12"/>
    <ellipse class="cls-196" cx="260.42" cy="333.12" rx="74.25" ry="36.89"/>
    <ellipse class="cls-228" cx="260.64" cy="332.98" rx="73.47" ry="36.65"/>
    <ellipse class="cls-31" cx="260.86" cy="332.84" rx="72.68" ry="36.42"/>
    <ellipse class="cls-114" cx="261.08" cy="332.7" rx="71.9" ry="36.18"/>
    <ellipse class="cls-180" cx="261.3" cy="332.56" rx="71.11" ry="35.94"/>
    <ellipse class="cls-61" cx="261.52" cy="332.42" rx="70.33" ry="35.71"/>
    <ellipse class="cls-209" cx="261.74" cy="332.28" rx="69.54" ry="35.47"/>
    <ellipse class="cls-170" cx="261.95" cy="332.14" rx="68.76" ry="35.24"/>
    <ellipse class="cls-188" cx="262.17" cy="332" rx="67.98" ry="35"/>
  </g>
  <g>
    <path class="cls-103" d="M295.15,330.64c-3.99-.05-7.97-.2-11.94-.46-11.82-.77-23.54-2.44-35.15-4.73-3.15-.62-6.3-1.29-9.44-2,11.74-52.74,8.7-109.23-10.45-162.78,3.05-1.05,6.06-2.19,9.02-3.44,3.48-1.47,6.89-3.08,10.21-4.85,1.82-.96,3.61-1.98,5.38-3.04,30.32,53.95,45.56,116.69,42.36,181.3Z"/>
    <path class="cls-22" d="M256.26,241.99c0,30.71-7.36,65.03-8.2,83.45-3.15-.62-6.3-1.29-9.44-2,11.74-52.74,8.7-109.23-10.45-162.78,3.05-1.05,6.06-2.19,9.02-3.44,4.52,14.65,19.07,54.46,19.07,84.77Z"/>
  </g>
  <path class="cls-227" d="M295.15,330.64c-3.99-.05-7.97-.2-11.94-.46-1.2-20.62-4.4-71.1-8.5-105.12-3.82-31.6-19.13-59.62-27.3-72.69,1.82-.96,3.61-1.98,5.38-3.04,30.32,53.95,45.56,116.69,42.36,181.3Z"/>
  <path class="cls-158" d="M236.97,189.9c4.49,5.44,10.29,8.74,16.65,4.58,5.68-3.59,10.03-9.16,14.43-14.33-1.18,3.35-2.94,6.47-5.03,9.36-3.26,4.4-7.57,8.66-13.26,9.54-5.88.81-11-3.94-12.78-9.15h0Z"/>
  <path class="cls-158" d="M245.29,234.36c9.64,12.03,18.64,9.67,30.09,1.9,3.22-2.28,6.28-4.87,9.18-7.75-4.58,8.74-16.22,18.34-26.61,16.98-5.87-.97-10.69-5.86-12.66-11.13h0Z"/>
  <path class="cls-158" d="M245.18,280.82c4.73,5.29,11.2,8.95,18.21,7.71,10.8-2.6,19.88-9.54,28.9-15.86-4.42,5.48-9.9,10.08-15.91,13.76-3.88,2.26-8.09,4.19-12.55,4.95-7.73,1.12-15.35-3.73-18.65-10.56h0Z"/>
  <g>
    <path class="cls-199" d="M242.18,155.02l-7.07,6.83-11.41,11.01c-6.51,1.61-14.97-1.17-21.49.44.72,2,4.14,11.28,2.78,17.3-1.63,7.21-6.26,11.39-7.81,12.68.13-1.02.86-7.36-3.65-12.5-2.94-3.35-6.56-4.43-8.02-4.79.4,2.62.77,7.4-.94,12.96-2.16,7.04-6.44,11.38-8.48,13.2.23-1.65.9-7.74-2.94-13.73-3.04-4.74-7.25-6.83-8.95-7.57.73,2.9,1.49,7.44.83,12.92-.89,7.38-3.89,12.72-5.73,15.48-.07-2.44-.58-8.09-4.37-13.8-3.05-4.58-6.83-7.1-8.92-8.28,0,0-.99,21.42-7.85,30.4-3.88,5.09-13.95,10.34-21.97,13.94-6.15,2.76-11.09,4.56-11.09,4.56-1.47-.06-7.27-13.54,14.98-60.84,7.64-16.24,23.27-37.53,44.11-40.89,36.7-5.91,77.98,10.68,77.98,10.68Z"/>
    <path class="cls-77" d="M234.56,158.24l-11.41,11.01c-6.51,1.61-14.97-1.17-21.49.44.72,2,4.14,11.28,2.78,17.3-1.63,7.21-6.26,11.39-7.81,12.68.13-1.02.86-7.36-3.65-12.5-2.94-3.35-6.56-4.43-8.02-4.79.4,2.62.77,7.4-.94,12.96-2.16,7.04-6.44,11.38-8.48,13.2.23-1.65.9-7.74-2.94-13.73-3.04-4.74-7.25-6.83-8.95-7.57.73,2.9,1.49,7.44.83,12.92-.89,7.38-3.89,12.72-5.73,15.48-.07-2.44-.58-8.09-4.37-13.8-3.05-4.58-6.83-7.1-8.92-8.28,0,0-.99,21.42-7.85,30.4-3.88,5.09-13.95,10.34-21.97,13.94,3.81-27.18,19.06-68.24,40.78-80.33,18.6-10.35,60.3-3.11,78.12.67Z"/>
    <path class="cls-229" d="M231.21,157.55c-3.1-1.07-6.36-1.34-9.57-1.73-8.08-.74-16.18-.9-24.29-.93-8.04-.07-16.15.07-24.08,1-8.13.89-16.15,2.61-22.91,7.4-4.71,3.18-8.67,7.38-11.81,12.14,1.27-3.72,3.26-7.19,5.75-10.26,3.97-4.74,8.36-8,13.61-10.37,10.95-4.37,23.04-5,34.65-4.71,9.89.39,19.83,1.3,29.44,3.78,3.12.9,6.51,1.84,9.22,3.67h0Z"/>
  </g>
  <g>
    <path class="cls-199" d="M241.15,156.25l7.69,5.55,12.4,8.94c6.44.64,14.13-3.18,20.57-2.54-.42,2.01-2.4,11.34-.27,16.9,2.55,6.66,7.54,10.02,9.2,11.04-.27-.96-1.83-6.91,1.77-12.43,2.34-3.6,5.65-5.13,7-5.67-.02,2.56.29,7.17,2.68,12.24,3.04,6.42,7.72,9.98,9.91,11.44-.45-1.54-1.92-7.27.92-13.52,2.25-4.94,5.98-7.52,7.51-8.46-.3,2.87-.4,7.31.98,12.45,1.86,6.92,5.47,11.61,7.59,13.99-.27-2.34-.56-7.8,2.28-13.77,2.28-4.8,5.54-7.72,7.38-9.14,0,0,3.89,20.32,11.67,27.95,4.4,4.32,14.74,7.95,22.89,10.29,6.25,1.79,11.21,2.83,11.21,2.83,1.4-.26,5.08-13.93-22.67-56.03-9.53-14.45-27.38-32.64-47.74-32.98-35.86-.6-72.98,20.92-72.98,20.92Z"/>
    <path class="cls-77" d="M248.87,158.28l12.4,8.94c6.44.64,14.13-3.18,20.57-2.54-.42,2.01-2.4,11.34-.27,16.9,2.55,6.66,7.54,10.02,9.2,11.04-.27-.96-1.83-6.91,1.77-12.43,2.34-3.6,5.65-5.13,7-5.67-.02,2.56.29,7.17,2.68,12.24,3.04,6.42,7.72,9.98,9.91,11.44-.45-1.54-1.92-7.27.92-13.52,2.25-4.94,5.98-7.52,7.51-8.46-.3,2.87-.4,7.31.98,12.45,1.86,6.92,5.47,11.61,7.59,13.99-.27-2.34-.56-7.8,2.28-13.77,2.28-4.8,5.54-7.72,7.38-9.14,0,0,3.89,20.32,11.67,27.95,4.4,4.32,14.74,7.95,22.89,10.29-7.37-25.43-27.58-62.53-49.99-71.09-19.18-7.33-58.01,5.32-74.5,11.38Z"/>
    <path class="cls-229" d="M251.97,157.16c1.77-1.63,3.97-2.71,6.1-3.79,3.61-1.7,7.42-3.05,11.2-4.24,6.11-1.83,12.3-3.29,18.58-4.4,11.04-1.87,22.67-2.93,33.73-.27,5.33,1.53,9.98,4.05,14.42,8.03,2.8,2.58,5.18,5.62,6.9,9-3.65-4.12-8-7.59-12.94-9.97-7.07-3.63-15.05-4.19-22.89-3.91-7.7.2-15.47,1.18-23.13,2.35-7.74,1.15-15.46,2.42-23.07,4.23-3.01.81-6.08,1.52-8.9,2.97h0Z"/>
  </g>
  <g>
    <path class="cls-77" d="M240.52,155.47l-9.74-1.35-15.7-2.18c-5.29-4.13-8.32-12.5-13.6-16.64-1.13,1.8-6.33,10.22-11.9,12.86-6.68,3.17-12.83,2.11-14.8,1.68.89-.53,6.32-3.87,7.58-10.58.82-4.38-.56-7.89-1.18-9.27-1.82,1.93-5.35,5.17-10.78,7.25-6.88,2.64-12.93,1.95-15.62,1.47,1.44-.83,6.65-4.07,8.99-10.79,1.86-5.31.9-9.92.43-11.71-1.83,2.37-4.93,5.77-9.65,8.63-6.35,3.86-12.41,4.79-15.71,5.05,1.88-1.57,6.01-5.45,8.16-11.95,1.72-5.23,1.37-9.75,1.01-12.13,0,0-17.47,12.44-28.77,12.59-6.4.09-16.74-4.6-24.53-8.68-5.97-3.13-10.43-5.91-10.43-5.91-.86-1.2,6.16-14.08,57.12-25.76,17.49-4.01,43.9-4.85,59.39,9.47,27.3,25.23,39.72,67.95,39.72,67.95Z"/>
    <path class="cls-199" d="M233.28,151.46l-15.7-2.18c-5.29-4.13-8.32-12.5-13.6-16.64-1.13,1.8-6.33,10.22-11.9,12.86-6.68,3.17-12.83,2.11-14.8,1.68.89-.53,6.32-3.87,7.58-10.58.82-4.38-.56-7.89-1.18-9.27-1.82,1.93-5.35,5.17-10.78,7.25-6.88,2.64-12.93,1.95-15.62,1.47,1.44-.83,6.65-4.07,8.99-10.79,1.86-5.31.9-9.92.43-11.71-1.83,2.37-4.93,5.77-9.65,8.63-6.35,3.86-12.41,4.79-15.71,5.05,1.88-1.57,6.01-5.45,8.16-11.95,1.72-5.23,1.37-9.75,1.01-12.13,0,0-17.47,12.44-28.77,12.59-6.4.09-16.74-4.6-24.53-8.68,23.74-13.78,65.45-27.11,88.38-17.48,19.62,8.24,39.66,45.53,47.69,61.89Z"/>
    <path class="cls-229" d="M231.76,148.41c-1.07-3.1-2.87-5.84-4.54-8.6-4.4-6.81-9.28-13.29-14.26-19.69-4.9-6.37-10.03-12.66-15.65-18.33-5.73-5.86-12.01-11.09-19.96-13.46-5.41-1.75-11.16-2.27-16.84-1.8,3.71-1.3,7.67-1.87,11.62-1.8,6.19.2,11.46,1.64,16.56,4.31,10.2,5.92,18.15,15.05,25.09,24.35,5.8,8.02,11.22,16.4,15.19,25.5,1.21,3.01,2.56,6.26,2.8,9.52h0Z"/>
  </g>
  <g>
    <path class="cls-77" d="M241.01,153.5l9.79-.9,15.78-1.46c5.47-3.89,8.88-12.11,14.35-15.99,1.04,1.85,5.85,10.5,11.3,13.39,6.52,3.47,12.72,2.69,14.7,2.36-.86-.57-6.13-4.15-7.09-10.92-.62-4.41.92-7.86,1.61-9.2,1.73,2.02,5.11,5.41,10.43,7.74,6.75,2.95,12.83,2.54,15.54,2.19-1.4-.9-6.45-4.38-8.48-11.19-1.61-5.39-.45-9.95.11-11.72,1.72,2.45,4.66,5.99,9.24,9.06,6.17,4.14,12.18,5.35,15.46,5.76-1.8-1.65-5.75-5.72-7.6-12.32-1.48-5.3-.92-9.81-.46-12.16,0,0,16.88,13.23,28.16,13.9,6.38.38,16.94-3.82,24.9-7.54,6.1-2.85,10.69-5.42,10.69-5.42.91-1.15-5.51-14.35-55.87-28.36-17.29-4.81-43.63-6.86-59.77,6.73-28.43,23.95-42.8,66.05-42.8,66.05Z"/>
    <path class="cls-199" d="M248.42,149.83l15.78-1.46c5.47-3.89,8.88-12.11,14.35-15.99,1.04,1.85,5.85,10.5,11.3,13.39,6.52,3.47,12.72,2.69,14.7,2.36-.86-.57-6.13-4.15-7.09-10.92-.62-4.41.92-7.86,1.61-9.2,1.73,2.02,5.11,5.41,10.43,7.74,6.75,2.95,12.83,2.54,15.54,2.19-1.4-.9-6.45-4.38-8.48-11.19-1.61-5.39-.45-9.95.11-11.72,1.72,2.45,4.66,5.99,9.24,9.06,6.17,4.14,12.18,5.35,15.46,5.76-1.8-1.65-5.75-5.72-7.6-12.32-1.48-5.3-.92-9.81-.46-12.16,0,0,16.88,13.23,28.16,13.9,6.38.38,16.94-3.82,24.9-7.54-23.08-14.86-64.14-30.09-87.48-21.53-19.98,7.33-41.71,43.66-50.48,59.63Z"/>
    <path class="cls-229" d="M250.08,146.85c.27-2.48,1.25-4.82,2.19-7.12,1.66-3.79,3.72-7.43,5.87-10.94,3.54-5.59,7.37-10.95,11.52-16.09,7.36-8.98,15.72-17.73,26.18-23.18,5.21-2.43,10.55-3.63,16.74-3.54,3.95.11,7.88.87,11.53,2.34-5.66-.73-11.42-.48-16.91,1.02-8.05,2.01-14.56,6.94-20.56,12.53-5.88,5.4-11.28,11.45-16.48,17.59-5.27,6.16-10.43,12.41-15.15,19.02-1.8,2.68-3.72,5.33-4.93,8.38h0Z"/>
  </g>
  <g>
    <path class="cls-199" d="M238.29,158.42l-4.43-8.77-7.14-14.15c.39-6.7,5.55-13.96,5.94-20.65-2.13.1-12,.61-17.35-2.46-6.4-3.69-9.03-9.35-9.81-11.21.94.43,6.78,2.99,13.02.21,4.07-1.81,6.17-4.95,6.94-6.25-2.62-.39-7.29-1.46-12.1-4.73-6.09-4.15-8.96-9.52-10.1-12.01,1.51.71,7.13,3.14,13.99,1.25,5.43-1.5,8.67-4.9,9.88-6.31-2.99-.16-7.55-.77-12.59-3.02-6.79-3.03-11-7.48-13.09-10.05,2.36.65,7.9,1.84,14.47-.09,5.28-1.56,8.8-4.42,10.55-6.07,0,0-20.17-7.28-26.72-16.49-3.71-5.21-5.75-16.38-6.82-25.11-.82-6.69-1.08-11.94-1.08-11.94.49-1.39,15.08-2.94,53.69,32.3,13.25,12.1,28.97,33.33,26.02,54.23-5.2,36.81-33.26,71.33-33.26,71.33Z"/>
    <path class="cls-77" d="M237.47,150.18l-7.14-14.15c.39-6.7,5.55-13.96,5.94-20.65-2.13.1-12,.61-17.35-2.46-6.4-3.69-9.03-9.35-9.81-11.21.94.43,6.78,2.99,13.02.21,4.07-1.81,6.17-4.95,6.94-6.25-2.62-.39-7.29-1.46-12.1-4.73-6.09-4.15-8.96-9.52-10.1-12.01,1.51.71,7.13,3.14,13.99,1.25,5.43-1.5,8.67-4.9,9.88-6.31-2.99-.16-7.55-.77-12.59-3.02-6.79-3.03-11-7.48-13.09-10.05,2.36.65,7.9,1.84,14.47-.09,5.28-1.56,8.8-4.42,10.55-6.07,0,0-20.17-7.28-26.72-16.49-3.71-5.21-5.75-16.38-6.82-25.11,24.84,11.67,59.55,38.38,64.68,62.71,4.39,20.83-14.86,58.53-23.74,74.43Z"/>
    <path class="cls-229" d="M239.11,147.19c1.94-2.65,3.17-5.68,4.48-8.63,3.09-7.5,5.65-15.19,8.08-22.93,2.44-7.66,4.71-15.45,6.16-23.3,1.55-8.03,2.28-16.2-.29-24.08-1.64-5.44-4.49-10.47-8.11-14.87,3.18,2.31,5.91,5.24,8.1,8.53,3.36,5.2,5.17,10.35,5.88,16.06.94,11.75-2.04,23.49-5.74,34.49-3.29,9.33-7.1,18.56-12.32,27-1.78,2.71-3.69,5.67-6.23,7.72h0Z"/>
  </g>
</svg>