<?xml version="1.0" encoding="UTF-8"?>
<svg id="Layer_1" data-name="Layer 1" xmlns="http://www.w3.org/2000/svg" viewBox="0 0 501.87 679.07">
  <defs>
    <style>
      .cls-1 {
        fill: #e90284;
      }

      .cls-1, .cls-2, .cls-3, .cls-4, .cls-5 {
        stroke-width: 0px;
      }

      .cls-2 {
        fill: #00a651;
      }

      .cls-3 {
        fill: #f9ed32;
      }

      .cls-4 {
        fill: #fff;
      }

      .cls-5 {
        fill: #231f20;
      }
    </style>
  </defs>
  <path class="cls-2" d="M237.29,659.73c4.64.31,8.81-2.05,13.3-3.21,1.17-.3,1.93-1.42,1.73-2.61-9.15-53.99-13.42-108.59-7.49-173.93,1.15-12.68,6.08-24.81,14.43-34.42,3.35-3.86,7.07-7.05,10.78-8.2,9.43-2.9,45.31-13.28,59.76-17.45,5.01-1.45,9.87-3.36,14.49-5.76,33.59-17.39,54.49-46.27,54.7-92.03-13.44,34.89-32.41,54.11-58.53,53.05,7.11-27.57-.11-51.81-11.89-74.99,11.78,37.97,6.82,64.15-8.23,83.23-.54-33.2-12.07-51.76-36.58-53.05,14.3,31.41,7.05,53.29-19.21,66.76,2.28-11.3,1.83-19.72-2.74-23.78-2.66,9.08-5.94,14.98-10.06,16.46-13.6-32.08-14.63-62.19,0-64.93,14.63-2.74,44.81-20.12,52.13-32.01-30.05,20.8-53.13,22.47-68.14,2.04-15.01,20.44-38.08,18.76-68.14-2.04,7.32,11.89,37.5,29.27,52.13,32.01,14.63,2.74,13.6,32.85,0,64.93-4.12-1.49-7.4-7.38-10.06-16.46-4.57,4.06-5.02,12.47-2.74,23.78-26.25-13.48-33.5-35.36-19.21-66.76-24.51,1.28-36.04,19.84-36.58,53.05-15.05-19.07-20.02-45.25-8.23-83.23-11.78,23.19-19,47.43-11.89,74.99-26.12,1.06-45.09-18.15-58.53-53.05.21,45.75,21.11,74.64,54.7,92.03,4.63,2.4,9.49,4.31,14.49,5.76,14.45,4.17,50.33,14.55,59.76,17.45,3.72,1.14,7.43,4.34,10.78,8.2,8.36,9.61,13.28,21.74,14.43,34.42,5.93,65.32,1.66,119.91-7.49,173.88-.2,1.18.52,2.34,1.68,2.64,4.52,1.16,9.5,3.54,14.28,3.21.71-.05,1.43-.04,2.15,0Z"/>
  <path class="cls-1" d="M232.55,184.04l-6.4-20.12c-12.8,11.89-20,22.48-25.72,35.7-7.79,18.01-9.14,38.29-2.97,56.92,4.59,13.86,13.25,26.77,29.6,27.19,0,0-19.21-22.86-12.8-61.28s18.29-38.41,18.29-38.41Z"/>
  <path class="cls-1" d="M218.83,156.6l5.49-5.49c-7.32-15.55-25.61-19.21-25.61-19.21,0,0,11.89,10.06,20.12,24.69Z"/>
  <path class="cls-1" d="M216.09,159.34c-41.62,40.63-45.88,80.21-18.29,118.89-27.21-9.07-31.01-34.2-30.27-52.64.39-9.69,2.2-19.27,5.12-28.51,3.1-9.81,3.67-9.47,5.02-14.77,5.5-21.56,1.73-44.53-10.54-63.09-10.75-16.26-21.46-26.66-21.46-26.66,0,0,35.67,17.38,70.42,66.76Z"/>
  <path class="cls-1" d="M159.38,84.35c14.31,6.59,21.96,16.77,21.95,31.1,6.4-7.32,3.66-20.12,3.66-20.12,0,0,14.32,19.45,9.15,31.1-.26,2.61,14.89-5.64,14.63-14.63-.13-4.66,19.56,28.79,17.38,36.58-2.58,9.19,7.32-9.15,7.32-9.15,0,0-8.23-57.62-74.08-54.87Z"/>
  <polygon class="cls-1" points="206.03 127.33 210.6 120.02 216.09 134.65 206.03 127.33"/>
  <path class="cls-1" d="M165.79,128.25c-.91,31.1-7.66,47.32-14.63,60.36-11.45,22.57-12,44.95-5.49,65.85.19-14.68,1.26-26.53,4.57-31.1,2.08,10.44,6.42,20.43,11.89,30.18,2.53,1.27-5.29-15.42-.37-47.83.92-6.09,2.53-12.05,4.54-17.86,10.61-30.7,4.85-53.39-.52-59.61Z"/>
  <path class="cls-1" d="M150.24,237.08s-5.49,29.27,28.35,56.7c33.84,27.44,50.3-6.4,50.3-6.4-39.47,3.92-65.24-13.54-78.65-50.3Z"/>
  <path class="cls-2" d="M99.94,316.65c-2.63,26.88,4.41,45.31,24.69,52.13-2.15-8.49-2.45-15.49-.91-21.04-9.25-2.14-17.08-13.11-23.78-31.1Z"/>
  <path class="cls-2" d="M138.35,251.72c-49.91-6.46-73.17,49.39-38.41,104.26-10.47-37.32-11.09-68.72,7.32-88.71-11.61,31.68-4.72,54.99,15.55,72.25,4.93-17.9,4.9-33.66-3.66-45.73,2,14.49,2.24,24.06.91,29.27-18.29-19.21-13.14-54.58,18.29-71.34Z"/>
  <path class="cls-4" d="M93.09,369.38c7.87,9.94,20.25,17.66,37.03,23.18,2.18-1.21,3.15-2.9,1.83-5.49-12.44-2.05-25.4-8.5-38.7-17.85-.11-.07-.24.06-.16.16Z"/>
  <path class="cls-1" d="M235.75,272.75s26.98-27.43,0-75.5c-26.98,48.06,0,75.5,0,75.5Z"/>
  <path class="cls-1" d="M238.95,184.04l6.4-20.12c12.8,11.89,20,22.48,25.72,35.7,7.79,18.01,9.14,38.29,2.97,56.92-4.59,13.86-13.25,26.77-29.6,27.19,0,0,19.21-22.86,12.8-61.28-6.4-38.41-18.29-38.41-18.29-38.41Z"/>
  <path class="cls-1" d="M252.67,156.6l-5.49-5.49c7.32-15.55,25.61-19.21,25.61-19.21,0,0-11.89,10.06-20.12,24.69Z"/>
  <path class="cls-1" d="M255.41,159.34c41.62,40.63,45.88,80.21,18.29,118.89,27.21-9.07,31.01-34.2,30.27-52.64-.39-9.69-2.2-19.27-5.12-28.51-3.1-9.81-3.67-9.47-5.02-14.77-5.5-21.56-1.73-44.53,10.54-63.09,10.75-16.26,21.46-26.66,21.46-26.66,0,0-35.67,17.38-70.42,66.76Z"/>
  <path class="cls-1" d="M312.12,84.35c-14.31,6.59-21.96,16.77-21.95,31.1-6.4-7.32-3.66-20.12-3.66-20.12,0,0-14.32,19.45-9.15,31.1.26,2.61-14.89-5.64-14.63-14.63.13-4.66-19.56,28.79-17.38,36.58,2.58,9.19-7.32-9.15-7.32-9.15,0,0,8.23-57.62,74.08-54.87Z"/>
  <polygon class="cls-1" points="265.47 127.33 260.9 120.02 255.41 134.65 265.47 127.33"/>
  <path class="cls-1" d="M305.72,128.25c.91,31.1,7.66,47.32,14.63,60.36,11.45,22.57,12,44.95,5.49,65.85-.19-14.68-1.26-26.53-4.57-31.1-2.08,10.44-6.42,20.43-11.89,30.18-2.53,1.27,5.29-15.42.37-47.83-.92-6.09-2.53-12.05-4.54-17.86-10.61-30.7-4.85-53.39.52-59.61Z"/>
  <path class="cls-1" d="M321.26,237.08s5.49,29.27-28.35,56.7c-33.84,27.44-50.3-6.4-50.3-6.4,39.47,3.92,65.24-13.54,78.65-50.3Z"/>
  <path class="cls-2" d="M371.56,316.65c2.63,26.88-4.41,45.31-24.69,52.13,2.15-8.49,2.45-15.49.91-21.04,9.25-2.14,17.08-13.11,23.78-31.1Z"/>
  <path class="cls-4" d="M235.75,471.83c5.64-28.26,26.22-47.07,57.12-59.43,6.55-2.62,11.79-7.79,14.82-14.17,7.44-15.69,5.67-30.96-2.89-45.91-7.03,31.75-24.06,51.16-48.47,55.79-2.74-1.68-2.11-7.49,0-13.72-16.46,15.55-10.06,36.58-20.58,52.84-10.52-16.26-4.12-37.29-20.58-52.84,2.11,6.22,2.74,12.04,0,13.72-24.41-4.63-41.44-24.04-48.47-55.79-8.56,14.96-10.33,30.22-2.89,45.91,3.02,6.38,8.27,11.55,14.82,14.17,30.9,12.36,51.48,31.18,57.12,59.43Z"/>
  <path class="cls-2" d="M333.15,251.72c49.91-6.46,73.17,49.39,38.41,104.26,10.47-37.32,11.09-68.72-7.32-88.71,11.61,31.68,4.72,54.99-15.55,72.25-4.93-17.9-4.9-33.66,3.66-45.73-2,14.49-2.24,24.06-.91,29.27,18.29-19.21,13.14-54.58-18.29-71.34Z"/>
  <path class="cls-4" d="M378.41,369.38c-7.87,9.94-20.25,17.66-37.03,23.18-2.18-1.21-3.15-2.9-1.83-5.49,12.44-2.05,25.4-8.5,38.7-17.85.11-.07.24.06.16.16Z"/>
  <path class="cls-2" d="M305.72,370.61s-.91,30.18-15.55,36.58c-19.21,8.23-36.58,22.86-36.58,22.86-.47-1.63-3.21-12,22.65-24.04,5.53-2.57,10.49-6.24,14.48-10.85,9.85-11.39,15.01-24.56,15.01-24.56Z"/>
  <polygon class="cls-4" points="236.21 331.28 243.52 318.48 235.75 308.12 227.98 318.48 235.29 331.28 236.21 331.28"/>
  <polygon class="cls-1" points="235.75 170.97 242.61 156.6 235.75 147.69 228.89 156.6 235.75 170.97"/>
  <polygon class="cls-1" points="235.75 125.67 244.44 105.38 235.75 90.44 227.06 105.38 235.75 125.67"/>
  <path class="cls-3" d="M336.6,78.37c5.57-2.3,9.65-7.43,11.78-16.3,1.98,5.06,1.82,12.58,0,20.83,6.54,2.83,11.71.55,15.4-7.25,1.28,6.95-3.22,11.24-9.96,14.49,5.56,1.22,11.3-1.55,17.21-8.15-.12,7.72-5.97,12.76-12.23,14.95,2.93,2.82,8.65,1.63,15.4-1.81.79,16.13-1.55,27.64-8.61,34.87,0,0,.54-18.07-4.08-20.38-2.28-2.28-7.11-2.01-12.08-9.08-1.64-2.33-3.63-8.06-4.23-10.85-1.9-8.84-8.61-11.32-8.61-11.32Z"/>
  <path class="cls-5" d="M298.29,68.3c-6.59-4.95-12.65-5.31-18.26-1.7-1.15.74-1.85,2.01-1.85,3.37h0c0,.71.75,1.17,1.39.85,3.43-1.77,7.19-2.89,10.39-1.96,7.25,3.62,9.29,3.03,9.34,1.39.02-.76-.39-1.49-1.01-1.94Z"/>
  <path class="cls-5" d="M309.88,58.9c-2.83,7.65-3.81,16.22-3.62,25.36,0,0-6.34-6.34-5.43-15.4.91-9.06,9.06-9.96,9.06-9.96Z"/>
  <path class="cls-5" d="M311.87,59.8c-.86,9.7-2.29,17.21-3.79,24.46,0,0,5.69-1.81,6.64-9.96.95-8.15-2.85-14.49-2.85-14.49Z"/>
  <path class="cls-5" d="M320.75,55.27c-2.39.8-5.47,9.27-2.51,16.84.77,1.96,2.5,3.39,4.58,3.75,20.81,3.66,23.18-17.95,20.58-19.69s-16.3,10.87-18.12,9.96-1.81-11.78-4.53-10.87Z"/>
  <path class="cls-5" d="M353.74,64.78c1.81,5.8.95,10.62-1.28,14.95,0,0,7.81.27,7.7-5.98-.12-6.25-6.41-8.97-6.41-8.97Z"/>
  <path class="cls-5" d="M318.04,80.63c-1.81,0-4.53,9.06-9.06,12.68s2.72,20.83,5.43,15.4-6.34-12.68,0-14.49,5.43-13.59,3.62-13.59Z"/>
  <path class="cls-5" d="M333.87,82.38c-1.57.9,2.76,14,1.5,20.94s17.75,25.69,16.1,17.29c-1.65-8.4-14.88-13.32-10.71-18.81s-5.32-20.32-6.89-19.42Z"/>
  <path class="cls-5" d="M325.24,83.37c-1.86.82-.63,11.2-3.67,16.91s12.06,19.82,12.43,13.1c.38-6.72-12.15-9.94-6.44-14.64s-.46-16.19-2.32-15.37Z"/>
  <ellipse class="cls-5" cx="358.34" cy="15.42" rx="8.15" ry="4.08" transform="translate(129.81 291.86) rotate(-52.88)"/>
  <path class="cls-5" d="M366.5,8.62c1.96-.54,2.67-2.14.93-5.81-.97-2.05-3.23-3.15-5.46-2.73-22.14,4.17-33.43,25.16-36.24,60.17,2.33-1.46,4.12-4.23,4.98-6.79-.35-8.56,2.22-16.39,7.18-25.25.03-.06.12-.09.18-.05,1.3.87,1.7,3.96,1.7,8.08,1.51.41,2.54-.53,3.24-2.4.25-.66.41-1.36.53-2.05.68-3.88.97-7.74.77-11.54,0-.07.09-.09.12-.03,1.37,2.78,1.99,5.7,1.67,8.78,1.99.36,3.39-1.53,4.1-3.23.29-.69.44-1.43.5-2.18.52-6.65.57-8.99-.07-10.9,1.52-3.55,5.09-5.67,10.87-8.15,2.09,1.2,3.77,1.92,4.98,4.08Z"/>
  <polygon class="cls-5" points="335.7 37.61 333.89 46.67 339.32 42.14 335.7 37.61"/>
  <ellipse class="cls-5" cx="352.44" cy="31.53" rx="14.58" ry="2.84" transform="translate(70.58 245.45) rotate(-42.31)"/>
  <path class="cls-5" d="M330.26,59.35c10.77-11.37,23.75-22.84,38.95-34.42,0,0,2.26,12.23-4.53,19.93s-14.49,9.06-14.49,9.06c6.67-6.45,11.08-12.06,11.78-16.3-15.33,13.49-25.43,20.12-31.7,21.74Z"/>
  <path class="cls-2" d="M165.79,370.61s.91,30.18,15.55,36.58c19.21,8.23,36.58,22.86,36.58,22.86.47-1.63,3.21-12-22.65-24.04-5.53-2.57-10.49-6.24-14.48-10.85-9.85-11.39-15.01-24.56-15.01-24.56Z"/>
</svg>