<?xml version="1.0" encoding="UTF-8"?>
<svg id="Layer_1" data-name="Layer 1" xmlns="http://www.w3.org/2000/svg" viewBox="0 0 468.57 776.35">
  <defs>
    <style>
      .cls-1 {
        fill: #fff;
      }

      .cls-1, .cls-2 {
        stroke-width: 0px;
      }

      .cls-2 {
        fill: #231f20;
      }
    </style>
  </defs>
  <path class="cls-2" d="M415.07,425.5c-100.87-16.81-109,62-161,69-26.23-4.37-23.2-53.1,8.17-114.56,1.78-3.5,3.14-7.2,4.05-11.02,3.71-15.65,12.92-47.83,14.79-56.42,8.87-40.93-4-93-4-93,8.02,11.7,19.64,23.83,24.13,40.37,3.63,13.37,5.38,24.62,12.87,27.63,0,0,19.62,3.99,9-27-12-35,2.96-51.64-5-80-7-20-23-28-23-28,0,0,16,1,31,18s9,52,23,62c20,8,0-34,0-34,6.47,11.94,13.93,15.55,19,35,7,26-28,71-23,82,9,20,20-20,20-20,9,27-26,62-30,72-2.31,5.76-.26,8.83,8.86,6.7,6.1-1.43,14.59-6.05,22.14-21.7-3,36-24,29-20,45s20,1,69,28Z"/>
  <path class="cls-2" d="M257.07,500.5c21.02,0,64-46,95-65s90,9,90,9c0,0-75-8-76,18s42,12,34,54c-1.43,7.48,3-21-18-20-28,15,41,41,45,85-1.01,13.08-3.03-26.51-34.6-22.94-1.8.2-3.21,1.54-3.55,3.32-3.84,20.62,35.15,13.62,60.15,62.62,25,49,12,64,12,64,0,0-10-55-38-60s47,74,27,129c-3.91-7.82,9.94-24.1-27.29-84.65-2.11-3.42-5.2-6.05-7.73-9.17-17.98-22.18-31.09-25.24-79.98-53.18-7-4-17.02-14.03-20-17-29.92-29.82-70-93-58-93Z"/>
  <path class="cls-2" d="M223.57,456c18.5-53.5,30.5-47.5,47-139,16.39-90.91-12.5-127.5-28.5-138.5,0,0,35,54-4,55-22.08.57-18.63-49.51-37-74-15-20-26.5-14.5-26.5-14.5,0,0,28.5,16.5,13.5,33.5-26,22-29-81-52-102-17.75-16.21-33-10-33-10,0,0,27.7,5.16,22,18.64-2.71,6.4-10.55,8.84-16.68,5.56-6.58-3.52-15.32-11.43-22.31-29.2-13-33-6-55-6-55,0,0-15,45-3,71,8.68,18.8,21,52,20.42,69.6-.07,2.18.16,4.34.13,6.53-.55,43.87-3.55,54.87,15.45,70.87,0,0,14,12,25,11,0,0-23.63-15.48-16.46-26.59,1.45-2.25,4.33-3.08,6.88-2.25,41.62,13.7,25.43,71.11,19.58,72.83-17,5-21-26-21-26,0,0-5.63,47.66,14,69s31.16,35.16,35,40c.34.42,2.58,3.2,4.44,5.57,1.71,2.18,3.03,4.64,3.93,7.27,10.21,29.75,12.77,61.97,39.13,80.67Z"/>
  <path class="cls-1" d="M261.07,294.5c-2.36,32.98-25,92-33,107,0-11,4.52-53.09,2-89-4-57,6.72-59,15-59s18,13,16,41Z"/>
  <path class="cls-1" d="M226.07,295.5c3,35,2,113-7,120,3-19-10-91-35-142-9.07-18.51,0-39,10-40,14.93-1.49,28.96,26.51,32,62Z"/>
  <path class="cls-1" d="M197.07,315.5c15.25,29.33,18.25,86.02,19,103-5.6-9.47-11.66-45.92-32-74-33.6-46.41-27.41-52.88-19.53-56.01s19.53,2.01,32.53,27.01Z"/>
  <path class="cls-1" d="M175.07,212.5c0,5.52-1.31,10-6,10s-9.48-4.69-11-10c-2-7-.69-12,4-12s13,6.48,13,12Z"/>
  <path class="cls-1" d="M209.07,208.5c0,3.31-1.79,6-4,6s-6-3.69-6-7,3.79-5,6-5,4,2.69,4,6Z"/>
  <path class="cls-1" d="M122.07,143c0,2.49-1.57,4.5-3.5,4.5s-3.5-2.01-3.5-4.5,1.07-5.5,3-5.5,4,3.01,4,5.5Z"/>
  <path class="cls-1" d="M149.07,166.5c0,2.76-.51,4-3,4s-6-1.24-6-4,1.51-7,4-7,5,4.24,5,7Z"/>
  <path class="cls-1" d="M99.07,96.5c0,2.76-1.07,5-3,5s-4-4.24-4-7,1.57-3,3.5-3,3.5,2.24,3.5,5Z"/>
  <path class="cls-1" d="M138.07,188c0,3.59-2,8.5-12,3.5-8.49-4.24-10,8-14-5-1.5-4.87,5-9,13-7,6.43,1.61,13,4.91,13,8.5Z"/>
  <path class="cls-1" d="M174.07,266.5c0,3.31-1.51,5-4,5s-5-1.69-5-5,.51-6,3-6,6,2.69,6,6Z"/>
  <path class="cls-1" d="M350.07,260.5c-2.18,6.55-7.69,12-11,12s-4.67-6.3-3-13c2-8,9.69-10,13-10s3,5,1,11Z"/>
  <path class="cls-1" d="M338.4,343.5c-2.9,5.02-7.94,7.38-10.33,6s-1.9-6.98,1-12,7.61-8.38,10-7,2.23,7.98-.67,13Z"/>
  <path class="cls-1" d="M313.07,347.5c0,3.87-3.07,5-5,5s-2-1.13-2-5,1.57-7,3.5-7,3.5,3.13,3.5,7Z"/>
  <path class="cls-1" d="M326.07,313.5c0,4.69-4.51,8-7,8-3.5,0-5-4-3-8,2.1-4.2,6.51-8,9-8s1,3.31,1,8Z"/>
  <path class="cls-1" d="M302.07,308.5c0,8.01-8.05,13.95-10,12-3-3-1-4.99-1-13s4.24-14,7-14,4,6.99,4,15Z"/>
  <path class="cls-1" d="M320.07,379.5c1.64,2.22.69,5.92-3.54,9.03s-10.83,4.2-12.46,1.97,2.77-5.89,7-9,7.36-4.22,9-2Z"/>
  <path class="cls-1" d="M295.07,365.5c-2,9-2.69,17-6,17s-7-6.84-7-16.5,5.69-17.5,9-17.5,6.1,7.57,4,17Z"/>
  <path class="cls-1" d="M359.07,497.5c0,2.76-1.24,4-4,4s-4.13-1.38-5-4c-1-3,1.24-5,4-5s5,2.24,5,5Z"/>
  <path class="cls-1" d="M383.07,538.5c1,6-.31,10-5,10s-7.92-1.45-11-7c-5-9-1.69-17,3-17s11.96,7.74,13,14Z"/>
  <path class="cls-1" d="M382.07,574.5c0,2.76.38,4-1,4s-4-1.24-4-4,1.12-5,2.5-5,2.5,2.24,2.5,5Z"/>
  <path class="cls-1" d="M411.07,600.5c4,6,4.69,15,0,15s-9.48-3.72-13-9c-4-6-10-16-2-16,4.69,0,11.48,4.72,15,10Z"/>
  <path class="cls-1" d="M405.07,633c0,3.04-1.57,5.5-3.5,5.5s-3.5-2.46-3.5-5.5,2.07-3.5,4-3.5,3,.46,3,3.5Z"/>
  <path class="cls-1" d="M262.07,420.5c-4.39,21.93-12,48-12,48,0,0,28-29,35-55,6.18-22.95-3-23-8-23-4,0-11,10-15,30Z"/>
  <path class="cls-1" d="M285.07,439.5c-12,13-30,30-30,30,3-6,11.64-14.36,21-31,9-16,14.32-27.67,20.92-24.16,4.08,2.16.58,11.62-11.92,25.16Z"/>
  <path class="cls-1" d="M282.07,456.5c-12.41,8.27-23,14-23,14,6-6,8-10,19-20s20-14,23-12c3.43,2.29-7,10-19,18Z"/>
  <path class="cls-1" d="M142.07,120.5c0,9.22-1,16-7,13-5.22-2.61-4-11-18-14-4.01-.86-4.59-5.74-4-7,.26-.57,1-2,3-2,20,0,9-9,18-10,6.05-.67,8,12,8,20Z"/>
  <path class="cls-1" d="M355.07,461.5c0,9.39-.86,16-5,16s-12-4.61-12-14,19.69-20.49,23-18c4,3-6,6.61-6,16Z"/>
  <path class="cls-1" d="M333.07,482.5c-2.44-4.01-16.41-.44-29,9s-27,20-27,20c16-1,30,0,44-7,14.08-7.04,14.44-17.99,12-22Z"/>
  <path class="cls-1" d="M364.07,570.5c-5,7-17.64,3.47-41-16-18-15-40-29-46-37,0,0,35.2,12.57,57,23,23,11,35.98,21.62,30,30Z"/>
  <path class="cls-1" d="M354.07,522.5c1,4.5.74,17.39-19,13-18-4-43-17-55-20,0,0,26.74-5,48-5s24.98,7.42,26,12Z"/>
  <path class="cls-1" d="M387.07,612.5c-6,8-37-5-66-34-26.5-26.5-40-42-47-59,0,0,26.99,24.32,59,46s58.24,41.34,54,47Z"/>
  <path class="cls-2" d="M222.07,471.5c5,17,15,31,9,25-8.06-8.06-30-2-42-21-14.44-22.86-2.84-35,6-35s22.07,14.25,27,31Z"/>
  <path class="cls-2" d="M247.07,521.5c8.74,15.1,13.06,26.41,14.47,30.42.35,1.01-.07,2.17-1.05,2.6-8.3,3.66-22.18-13.58-28.42-25.02-4.5-5.4-14.66-26.16-16.65-30.29-.17-.34.07-.75.45-.77,10.81-.49,22.99,8.86,31.21,23.05Z"/>
  <path class="cls-2" d="M364.24,651.04c.22.12.1.48-.14.43-9.03-1.97-23.03-10.97-40.03-20.97-18.35-10.19-23.74-21.12-21.61-24.01s13.61.01,32.61,21.01c12.18,13.46,25.73,21.59,29.17,23.54Z"/>
  <path class="cls-2" d="M254.57,561l16.5.5s31.05,27.4,28.13,38.99c-.24.96-1.08,1.69-2.06,1.78-16.43,1.55-43.76-41.25-42.57-41.27Z"/>
  <path class="cls-2" d="M185.07,420.5c-1.02-18.05-8.49-28.14-15.94-33.97-9.6-7.51-22.62-9.33-33.85-4.6-11.52,4.85-15.1,13.09-38.15,13.55-1.48.03-2.96-.25-4.31-.84-14.7-6.39-4.24-19.41-14.74-25.14-5.34-2.91-11-2-11,8s9,22,9,22c0,0,15.69,16.62,55.94-4.25,6.28-3.25,13.4-4.7,20.41-3.77,34.79,4.62,34.36,59.4,32.64,29.02Z"/>
  <path class="cls-2" d="M100.04,442.83c6.67,1.22,15.66,2.92,29.08-16.9.77-1.14,1.68-2.17,2.76-3.02,1.74-1.37,3.71-2.58,5.19-3.41,26.39-14.95,52.69,37.52,42,15-8.64-18.21-21.5-24.5-30-26-11.86-2.09-15.5.5-18.5,2.5-13.03,8.69-9.83,12.15-21.6,19.06-1.47.86-4.07,1.44-5.76,1.25-10.24-1.16-3.58-7.06-12.13-8.82-4.49-.92-10,1-9,8,.73,5.09,8.86,9.13,13.24,10.95,1.52.63,3.1,1.09,4.73,1.39Z"/>
</svg>